<svg xmlns="http://www.w3.org/2000/svg" viewBox="-10.0 -85.7 443.1 98.7" role="img" aria-label="FreshAF">
<g transform="skewX(-9)">
<path fill="#e9f2f6" d="M23.08 0L5.50 0L5.50-72.73L55.15-72.73L55.15-58.45L23.08-58.45L23.08-43.54L51.99-43.54L51.99-29.23L23.08-29.23L23.08 0ZM78.79 0L61.43 0L61.43-54.55L78.29-54.55L78.29-44.60L78.86-44.60Q80.35-50.00 83.73-52.65Q87.10-55.29 91.58-55.29L91.58-55.29Q92.78-55.29 94.06-55.13Q95.34-54.97 96.44-54.65L96.44-54.65L96.44-39.56Q95.20-39.99 93.19-40.23Q91.18-40.48 89.62-40.48L89.62-40.48Q86.53-40.48 84.06-39.12Q81.60-37.75 80.19-35.32Q78.79-32.88 78.79-29.62L78.79-29.62L78.79 0ZM124.70 1.03L124.70 1.03Q116.14 1.03 109.94-2.36Q103.75-5.75 100.43-12.06Q97.11-18.36 97.11-27.06L97.11-27.06Q97.11-35.51 100.44-41.85Q103.78-48.19 109.86-51.72Q115.93-55.26 124.17-55.26L124.17-55.26Q129.99-55.26 134.82-53.44Q139.65-51.63 143.16-48.08Q146.68-44.53 148.63-39.33Q150.59-34.13 150.59-27.41L150.59-27.41L150.59-23.08L103.18-23.08L103.18-33.17L134.43-33.17Q134.39-35.94 133.12-38.10Q131.84-40.27 129.62-41.50Q127.40-42.72 124.52-42.72L124.52-42.72Q121.61-42.72 119.30-41.42Q116.99-40.13 115.64-37.91Q114.29-35.69 114.22-32.88L114.22-32.88L114.22-22.62Q114.22-19.28 115.54-16.78Q116.85-14.28 119.27-12.89Q121.68-11.51 125.02-11.51L125.02-11.51Q127.33-11.51 129.21-12.14Q131.09-12.78 132.44-14.03Q133.79-15.27 134.46-17.08L134.46-17.08L150.41-16.62Q149.41-11.26 146.06-7.30Q142.70-3.34 137.27-1.15Q131.84 1.03 124.70 1.03ZM205.62-37.89L205.62-37.89L189.68-37.46Q189.43-39.17 188.33-40.50Q187.23-41.83 185.47-42.60Q183.71-43.36 181.40-43.36L181.40-43.36Q178.38-43.36 176.27-42.15Q174.16-40.94 174.19-38.88L174.19-38.88Q174.16-37.29 175.49-36.12Q176.82-34.94 180.27-34.23L180.27-34.23L190.78-32.24Q198.94-30.68 202.94-27.06Q206.93-23.44 206.97-17.47L206.97-17.47Q206.93-11.86 203.65-7.71Q200.37-3.55 194.68-1.26Q189.00 1.03 181.69 1.03L181.69 1.03Q170.00 1.03 163.27-3.78Q156.54-8.59 155.59-16.69L155.59-16.69L172.74-17.12Q173.31-14.13 175.68-12.57Q178.06-11.01 181.76-11.01L181.76-11.01Q185.10-11.01 187.19-12.25Q189.29-13.49 189.32-15.55L189.32-15.55Q189.29-17.40 187.69-18.52Q186.09-19.64 182.68-20.28L182.68-20.28L173.16-22.09Q164.96-23.58 160.95-27.61Q156.93-31.64 156.97-37.89L156.97-37.89Q156.93-43.36 159.88-47.25Q162.83-51.14 168.26-53.20Q173.70-55.26 181.08-55.26L181.08-55.26Q192.16-55.26 198.55-50.62Q204.95-45.99 205.62-37.89ZM231.36-31.11L231.36-31.11L231.36 0L213.99 0L213.99-72.73L230.79-72.73L230.79-44.53L231.39-44.53Q233.24-49.57 237.45-52.41Q241.66-55.26 247.76-55.26L247.76-55.26Q253.52-55.26 257.78-52.72Q262.04-50.18 264.40-45.56Q266.76-40.94 266.73-34.77L266.73-34.77L266.73 0L249.36 0L249.36-31.36Q249.40-35.90 247.09-38.46Q244.78-41.02 240.59-41.02L240.59-41.02Q237.86-41.02 235.78-39.83Q233.70-38.64 232.55-36.43Q231.39-34.23 231.36-31.11Z"/>
<path fill="#21b1d8" d="M315.30-54.40L298.25 0L279.36 0L303.90-72.73L327.30-72.73L351.84 0L332.95 0L315.87-54.40L315.30-54.40ZM295.73-15.27L295.73-28.62L335.22-28.62L335.22-15.27L295.73-15.27ZM375.77 0L358.19 0L358.19-72.73L407.83-72.73L407.83-58.45L375.77-58.45L375.77-43.54L404.67-43.54L404.67-29.23L375.77-29.23L375.77 0Z"/>
</g>
</svg>
